<?xml version="1.0" encoding="UTF-8" standalone="no"?>
<!DOCTYPE svg PUBLIC "-//W3C//DTD SVG 1.1//EN"
 "http://www.w3.org/Graphics/SVG/1.1/DTD/svg11.dtd">
<!-- Generated by graphviz version 2.40.1 (20161225.0304)
 -->
<!-- Title: G Pages: 1 -->
<svg width="560pt" height="3476pt"
 viewBox="0.00 0.00 560.00 3476.00" xmlns="http://www.w3.org/2000/svg" xmlns:xlink="http://www.w3.org/1999/xlink">
<g id="graph0" class="graph" transform="scale(1 1) rotate(0) translate(4 3472)">
<title>G</title>
<polygon fill="#ffffff" stroke="transparent" points="-4,4 -4,-3472 556,-3472 556,4 -4,4"/>
<!-- 140530927247568 -->
<g id="node1" class="node">
<title>140530927247568</title>
<polygon fill="none" stroke="#000000" points="356.5,-3431.5 356.5,-3467.5 481.5,-3467.5 481.5,-3431.5 356.5,-3431.5"/>
<text text-anchor="middle" x="419" y="-3445.8" font-family="Times,serif" font-size="14.00" fill="#000000">input_1: InputLayer</text>
</g>
<!-- 140530927202192 -->
<g id="node2" class="node">
<title>140530927202192</title>
<polygon fill="none" stroke="#000000" points="357.5,-3358.5 357.5,-3394.5 480.5,-3394.5 480.5,-3358.5 357.5,-3358.5"/>
<text text-anchor="middle" x="419" y="-3372.8" font-family="Times,serif" font-size="14.00" fill="#000000">conv2d_1: Conv2D</text>
</g>
<!-- 140530927247568&#45;&gt;140530927202192 -->
<g id="edge1" class="edge">
<title>140530927247568&#45;&gt;140530927202192</title>
<path fill="none" stroke="#000000" d="M419,-3431.4551C419,-3423.3828 419,-3413.6764 419,-3404.6817"/>
<polygon fill="#000000" stroke="#000000" points="422.5001,-3404.5903 419,-3394.5904 415.5001,-3404.5904 422.5001,-3404.5903"/>
</g>
<!-- 140530927249232 -->
<g id="node3" class="node">
<title>140530927249232</title>
<polygon fill="none" stroke="#000000" points="357.5,-3285.5 357.5,-3321.5 480.5,-3321.5 480.5,-3285.5 357.5,-3285.5"/>
<text text-anchor="middle" x="419" y="-3299.8" font-family="Times,serif" font-size="14.00" fill="#000000">conv2d_2: Conv2D</text>
</g>
<!-- 140530927202192&#45;&gt;140530927249232 -->
<g id="edge2" class="edge">
<title>140530927202192&#45;&gt;140530927249232</title>
<path fill="none" stroke="#000000" d="M419,-3358.4551C419,-3350.3828 419,-3340.6764 419,-3331.6817"/>
<polygon fill="#000000" stroke="#000000" points="422.5001,-3331.5903 419,-3321.5904 415.5001,-3331.5904 422.5001,-3331.5903"/>
</g>
<!-- 140530918515920 -->
<g id="node4" class="node">
<title>140530918515920</title>
<polygon fill="none" stroke="#000000" points="289,-3212.5 289,-3248.5 549,-3248.5 549,-3212.5 289,-3212.5"/>
<text text-anchor="middle" x="419" y="-3226.8" font-family="Times,serif" font-size="14.00" fill="#000000">batch_normalization_1: BatchNormalization</text>
</g>
<!-- 140530927249232&#45;&gt;140530918515920 -->
<g id="edge3" class="edge">
<title>140530927249232&#45;&gt;140530918515920</title>
<path fill="none" stroke="#000000" d="M419,-3285.4551C419,-3277.3828 419,-3267.6764 419,-3258.6817"/>
<polygon fill="#000000" stroke="#000000" points="422.5001,-3258.5903 419,-3248.5904 415.5001,-3258.5904 422.5001,-3258.5903"/>
</g>
<!-- 140530918517072 -->
<g id="node5" class="node">
<title>140530918517072</title>
<polygon fill="none" stroke="#000000" points="249.5,-3139.5 249.5,-3175.5 456.5,-3175.5 456.5,-3139.5 249.5,-3139.5"/>
<text text-anchor="middle" x="353" y="-3153.8" font-family="Times,serif" font-size="14.00" fill="#000000">max_pooling2d_1: MaxPooling2D</text>
</g>
<!-- 140530918515920&#45;&gt;140530918517072 -->
<g id="edge4" class="edge">
<title>140530918515920&#45;&gt;140530918517072</title>
<path fill="none" stroke="#000000" d="M402.6854,-3212.4551C394.6733,-3203.5932 384.8804,-3192.7616 376.1132,-3183.0646"/>
<polygon fill="#000000" stroke="#000000" points="378.6584,-3180.6609 369.3557,-3175.5904 373.4659,-3185.3554 378.6584,-3180.6609"/>
</g>
<!-- 140530465444304 -->
<g id="node43" class="node">
<title>140530465444304</title>
<polygon fill="none" stroke="#000000" points="338,-365.5 338,-401.5 506,-401.5 506,-365.5 338,-365.5"/>
<text text-anchor="middle" x="422" y="-379.8" font-family="Times,serif" font-size="14.00" fill="#000000">concatenate_4: Concatenate</text>
</g>
<!-- 140530918515920&#45;&gt;140530465444304 -->
<g id="edge45" class="edge">
<title>140530918515920&#45;&gt;140530465444304</title>
<path fill="none" stroke="#000000" d="M438.4345,-3212.4843C448.0448,-3202.5773 459.0451,-3189.5639 466,-3176 485.0838,-3138.7818 488,-3126.3256 488,-3084.5 488,-3084.5 488,-3084.5 488,-529.5 488,-484.5704 461.7267,-438.2165 442.3337,-410.1212"/>
<polygon fill="#000000" stroke="#000000" points="444.9686,-407.7871 436.321,-401.6658 439.2639,-411.8438 444.9686,-407.7871"/>
</g>
<!-- 140530918664848 -->
<g id="node6" class="node">
<title>140530918664848</title>
<polygon fill="none" stroke="#000000" points="287.5,-3066.5 287.5,-3102.5 410.5,-3102.5 410.5,-3066.5 287.5,-3066.5"/>
<text text-anchor="middle" x="349" y="-3080.8" font-family="Times,serif" font-size="14.00" fill="#000000">conv2d_3: Conv2D</text>
</g>
<!-- 140530918517072&#45;&gt;140530918664848 -->
<g id="edge5" class="edge">
<title>140530918517072&#45;&gt;140530918664848</title>
<path fill="none" stroke="#000000" d="M352.0112,-3139.4551C351.5689,-3131.3828 351.0371,-3121.6764 350.5442,-3112.6817"/>
<polygon fill="#000000" stroke="#000000" points="354.0332,-3112.3839 349.9913,-3102.5904 347.0437,-3112.7669 354.0332,-3112.3839"/>
</g>
<!-- 140530862845200 -->
<g id="node7" class="node">
<title>140530862845200</title>
<polygon fill="none" stroke="#000000" points="281.5,-2993.5 281.5,-3029.5 404.5,-3029.5 404.5,-2993.5 281.5,-2993.5"/>
<text text-anchor="middle" x="343" y="-3007.8" font-family="Times,serif" font-size="14.00" fill="#000000">conv2d_4: Conv2D</text>
</g>
<!-- 140530918664848&#45;&gt;140530862845200 -->
<g id="edge6" class="edge">
<title>140530918664848&#45;&gt;140530862845200</title>
<path fill="none" stroke="#000000" d="M347.5169,-3066.4551C346.8534,-3058.3828 346.0556,-3048.6764 345.3163,-3039.6817"/>
<polygon fill="#000000" stroke="#000000" points="348.7944,-3039.27 344.4869,-3029.5904 341.8179,-3039.8435 348.7944,-3039.27"/>
</g>
<!-- 140530862990864 -->
<g id="node8" class="node">
<title>140530862990864</title>
<polygon fill="none" stroke="#000000" points="200,-2920.5 200,-2956.5 460,-2956.5 460,-2920.5 200,-2920.5"/>
<text text-anchor="middle" x="330" y="-2934.8" font-family="Times,serif" font-size="14.00" fill="#000000">batch_normalization_2: BatchNormalization</text>
</g>
<!-- 140530862845200&#45;&gt;140530862990864 -->
<g id="edge7" class="edge">
<title>140530862845200&#45;&gt;140530862990864</title>
<path fill="none" stroke="#000000" d="M339.7865,-2993.4551C338.349,-2985.3828 336.6205,-2975.6764 335.0187,-2966.6817"/>
<polygon fill="#000000" stroke="#000000" points="338.4207,-2965.8218 333.2216,-2956.5904 331.5291,-2967.0491 338.4207,-2965.8218"/>
</g>
<!-- 140530862990800 -->
<g id="node9" class="node">
<title>140530862990800</title>
<polygon fill="none" stroke="#000000" points="198.5,-2847.5 198.5,-2883.5 405.5,-2883.5 405.5,-2847.5 198.5,-2847.5"/>
<text text-anchor="middle" x="302" y="-2861.8" font-family="Times,serif" font-size="14.00" fill="#000000">max_pooling2d_2: MaxPooling2D</text>
</g>
<!-- 140530862990864&#45;&gt;140530862990800 -->
<g id="edge8" class="edge">
<title>140530862990864&#45;&gt;140530862990800</title>
<path fill="none" stroke="#000000" d="M323.0786,-2920.4551C319.9151,-2912.2074 316.0973,-2902.2536 312.5848,-2893.0962"/>
<polygon fill="#000000" stroke="#000000" points="315.7879,-2891.6737 308.9388,-2883.5904 309.2522,-2894.1806 315.7879,-2891.6737"/>
</g>
<!-- 140530860567376 -->
<g id="node37" class="node">
<title>140530860567376</title>
<polygon fill="none" stroke="#000000" points="246,-803.5 246,-839.5 414,-839.5 414,-803.5 246,-803.5"/>
<text text-anchor="middle" x="330" y="-817.8" font-family="Times,serif" font-size="14.00" fill="#000000">concatenate_3: Concatenate</text>
</g>
<!-- 140530862990864&#45;&gt;140530860567376 -->
<g id="edge38" class="edge">
<title>140530862990864&#45;&gt;140530860567376</title>
<path fill="none" stroke="#000000" d="M371.3763,-2920.3838C387.183,-2911.5374 404.0259,-2899.4271 415,-2884 439.2444,-2849.9179 437,-2834.3256 437,-2792.5 437,-2792.5 437,-2792.5 437,-967.5 437,-917.0166 394.8657,-872.4 363.4771,-846.1664"/>
<polygon fill="#000000" stroke="#000000" points="365.3294,-843.1623 355.3575,-839.5829 360.9208,-848.5996 365.3294,-843.1623"/>
</g>
<!-- 140530862503888 -->
<g id="node10" class="node">
<title>140530862503888</title>
<polygon fill="none" stroke="#000000" points="234.5,-2774.5 234.5,-2810.5 357.5,-2810.5 357.5,-2774.5 234.5,-2774.5"/>
<text text-anchor="middle" x="296" y="-2788.8" font-family="Times,serif" font-size="14.00" fill="#000000">conv2d_5: Conv2D</text>
</g>
<!-- 140530862990800&#45;&gt;140530862503888 -->
<g id="edge9" class="edge">
<title>140530862990800&#45;&gt;140530862503888</title>
<path fill="none" stroke="#000000" d="M300.5169,-2847.4551C299.8534,-2839.3828 299.0556,-2829.6764 298.3163,-2820.6817"/>
<polygon fill="#000000" stroke="#000000" points="301.7944,-2820.27 297.4869,-2810.5904 294.8179,-2820.8435 301.7944,-2820.27"/>
</g>
<!-- 140530862229072 -->
<g id="node11" class="node">
<title>140530862229072</title>
<polygon fill="none" stroke="#000000" points="221.5,-2701.5 221.5,-2737.5 344.5,-2737.5 344.5,-2701.5 221.5,-2701.5"/>
<text text-anchor="middle" x="283" y="-2715.8" font-family="Times,serif" font-size="14.00" fill="#000000">conv2d_6: Conv2D</text>
</g>
<!-- 140530862503888&#45;&gt;140530862229072 -->
<g id="edge10" class="edge">
<title>140530862503888&#45;&gt;140530862229072</title>
<path fill="none" stroke="#000000" d="M292.7865,-2774.4551C291.349,-2766.3828 289.6205,-2756.6764 288.0187,-2747.6817"/>
<polygon fill="#000000" stroke="#000000" points="291.4207,-2746.8218 286.2216,-2737.5904 284.5291,-2748.0491 291.4207,-2746.8218"/>
</g>
<!-- 140530862287120 -->
<g id="node12" class="node">
<title>140530862287120</title>
<polygon fill="none" stroke="#000000" points="149,-2628.5 149,-2664.5 409,-2664.5 409,-2628.5 149,-2628.5"/>
<text text-anchor="middle" x="279" y="-2642.8" font-family="Times,serif" font-size="14.00" fill="#000000">batch_normalization_3: BatchNormalization</text>
</g>
<!-- 140530862229072&#45;&gt;140530862287120 -->
<g id="edge11" class="edge">
<title>140530862229072&#45;&gt;140530862287120</title>
<path fill="none" stroke="#000000" d="M282.0112,-2701.4551C281.5689,-2693.3828 281.0371,-2683.6764 280.5442,-2674.6817"/>
<polygon fill="#000000" stroke="#000000" points="284.0332,-2674.3839 279.9913,-2664.5904 277.0437,-2674.7669 284.0332,-2674.3839"/>
</g>
<!-- 140530862287632 -->
<g id="node13" class="node">
<title>140530862287632</title>
<polygon fill="none" stroke="#000000" points="147.5,-2555.5 147.5,-2591.5 354.5,-2591.5 354.5,-2555.5 147.5,-2555.5"/>
<text text-anchor="middle" x="251" y="-2569.8" font-family="Times,serif" font-size="14.00" fill="#000000">max_pooling2d_3: MaxPooling2D</text>
</g>
<!-- 140530862287120&#45;&gt;140530862287632 -->
<g id="edge12" class="edge">
<title>140530862287120&#45;&gt;140530862287632</title>
<path fill="none" stroke="#000000" d="M272.0786,-2628.4551C268.9151,-2620.2074 265.0973,-2610.2536 261.5848,-2601.0962"/>
<polygon fill="#000000" stroke="#000000" points="264.7879,-2599.6737 257.9388,-2591.5904 258.2522,-2602.1806 264.7879,-2599.6737"/>
</g>
<!-- 140530860653136 -->
<g id="node31" class="node">
<title>140530860653136</title>
<polygon fill="none" stroke="#000000" points="195,-1241.5 195,-1277.5 363,-1277.5 363,-1241.5 195,-1241.5"/>
<text text-anchor="middle" x="279" y="-1255.8" font-family="Times,serif" font-size="14.00" fill="#000000">concatenate_2: Concatenate</text>
</g>
<!-- 140530862287120&#45;&gt;140530860653136 -->
<g id="edge31" class="edge">
<title>140530862287120&#45;&gt;140530860653136</title>
<path fill="none" stroke="#000000" d="M320.3763,-2628.3838C336.183,-2619.5374 353.0259,-2607.4271 364,-2592 388.2444,-2557.9179 386,-2542.3256 386,-2500.5 386,-2500.5 386,-2500.5 386,-1405.5 386,-1355.0166 343.8657,-1310.4 312.4771,-1284.1664"/>
<polygon fill="#000000" stroke="#000000" points="314.3294,-1281.1623 304.3575,-1277.5829 309.9208,-1286.5996 314.3294,-1281.1623"/>
</g>
<!-- 140530862376720 -->
<g id="node14" class="node">
<title>140530862376720</title>
<polygon fill="none" stroke="#000000" points="183.5,-2482.5 183.5,-2518.5 306.5,-2518.5 306.5,-2482.5 183.5,-2482.5"/>
<text text-anchor="middle" x="245" y="-2496.8" font-family="Times,serif" font-size="14.00" fill="#000000">conv2d_7: Conv2D</text>
</g>
<!-- 140530862287632&#45;&gt;140530862376720 -->
<g id="edge13" class="edge">
<title>140530862287632&#45;&gt;140530862376720</title>
<path fill="none" stroke="#000000" d="M249.5169,-2555.4551C248.8534,-2547.3828 248.0556,-2537.6764 247.3163,-2528.6817"/>
<polygon fill="#000000" stroke="#000000" points="250.7944,-2528.27 246.4869,-2518.5904 243.8179,-2528.8435 250.7944,-2528.27"/>
</g>
<!-- 140530862046160 -->
<g id="node15" class="node">
<title>140530862046160</title>
<polygon fill="none" stroke="#000000" points="170.5,-2409.5 170.5,-2445.5 293.5,-2445.5 293.5,-2409.5 170.5,-2409.5"/>
<text text-anchor="middle" x="232" y="-2423.8" font-family="Times,serif" font-size="14.00" fill="#000000">conv2d_8: Conv2D</text>
</g>
<!-- 140530862376720&#45;&gt;140530862046160 -->
<g id="edge14" class="edge">
<title>140530862376720&#45;&gt;140530862046160</title>
<path fill="none" stroke="#000000" d="M241.7865,-2482.4551C240.349,-2474.3828 238.6205,-2464.6764 237.0187,-2455.6817"/>
<polygon fill="#000000" stroke="#000000" points="240.4207,-2454.8218 235.2216,-2445.5904 233.5291,-2456.0491 240.4207,-2454.8218"/>
</g>
<!-- 140530862137488 -->
<g id="node16" class="node">
<title>140530862137488</title>
<polygon fill="none" stroke="#000000" points="98,-2336.5 98,-2372.5 358,-2372.5 358,-2336.5 98,-2336.5"/>
<text text-anchor="middle" x="228" y="-2350.8" font-family="Times,serif" font-size="14.00" fill="#000000">batch_normalization_4: BatchNormalization</text>
</g>
<!-- 140530862046160&#45;&gt;140530862137488 -->
<g id="edge15" class="edge">
<title>140530862046160&#45;&gt;140530862137488</title>
<path fill="none" stroke="#000000" d="M231.0112,-2409.4551C230.5689,-2401.3828 230.0371,-2391.6764 229.5442,-2382.6817"/>
<polygon fill="#000000" stroke="#000000" points="233.0332,-2382.3839 228.9913,-2372.5904 226.0437,-2382.7669 233.0332,-2382.3839"/>
</g>
<!-- 140530862137936 -->
<g id="node17" class="node">
<title>140530862137936</title>
<polygon fill="none" stroke="#000000" points="165.5,-2263.5 165.5,-2299.5 290.5,-2299.5 290.5,-2263.5 165.5,-2263.5"/>
<text text-anchor="middle" x="228" y="-2277.8" font-family="Times,serif" font-size="14.00" fill="#000000">dropout_1: Dropout</text>
</g>
<!-- 140530862137488&#45;&gt;140530862137936 -->
<g id="edge16" class="edge">
<title>140530862137488&#45;&gt;140530862137936</title>
<path fill="none" stroke="#000000" d="M228,-2336.4551C228,-2328.3828 228,-2318.6764 228,-2309.6817"/>
<polygon fill="#000000" stroke="#000000" points="231.5001,-2309.5903 228,-2299.5904 224.5001,-2309.5904 231.5001,-2309.5903"/>
</g>
<!-- 140530862186640 -->
<g id="node18" class="node">
<title>140530862186640</title>
<polygon fill="none" stroke="#000000" points="49.5,-2190.5 49.5,-2226.5 256.5,-2226.5 256.5,-2190.5 49.5,-2190.5"/>
<text text-anchor="middle" x="153" y="-2204.8" font-family="Times,serif" font-size="14.00" fill="#000000">max_pooling2d_4: MaxPooling2D</text>
</g>
<!-- 140530862137936&#45;&gt;140530862186640 -->
<g id="edge17" class="edge">
<title>140530862137936&#45;&gt;140530862186640</title>
<path fill="none" stroke="#000000" d="M209.4607,-2263.4551C200.2658,-2254.5054 189.0072,-2243.547 178.9695,-2233.7769"/>
<polygon fill="#000000" stroke="#000000" points="181.1932,-2231.0572 171.586,-2226.5904 176.3108,-2236.0734 181.1932,-2231.0572"/>
</g>
<!-- 140530861532176 -->
<g id="node25" class="node">
<title>140530861532176</title>
<polygon fill="none" stroke="#000000" points="144,-1679.5 144,-1715.5 312,-1715.5 312,-1679.5 144,-1679.5"/>
<text text-anchor="middle" x="228" y="-1693.8" font-family="Times,serif" font-size="14.00" fill="#000000">concatenate_1: Concatenate</text>
</g>
<!-- 140530862137936&#45;&gt;140530861532176 -->
<g id="edge24" class="edge">
<title>140530862137936&#45;&gt;140530861532176</title>
<path fill="none" stroke="#000000" d="M242.7409,-2263.2947C250.338,-2253.1319 259.2002,-2239.9407 265,-2227 282.1495,-2188.7356 288,-2177.4317 288,-2135.5 288,-2135.5 288,-2135.5 288,-1843.5 288,-1799.2369 264.1152,-1752.7085 246.4852,-1724.3935"/>
<polygon fill="#000000" stroke="#000000" points="249.3623,-1722.3964 241.0191,-1715.8663 243.4691,-1726.174 249.3623,-1722.3964"/>
</g>
<!-- 140530861762960 -->
<g id="node19" class="node">
<title>140530861762960</title>
<polygon fill="none" stroke="#000000" points="85.5,-2117.5 85.5,-2153.5 208.5,-2153.5 208.5,-2117.5 85.5,-2117.5"/>
<text text-anchor="middle" x="147" y="-2131.8" font-family="Times,serif" font-size="14.00" fill="#000000">conv2d_9: Conv2D</text>
</g>
<!-- 140530862186640&#45;&gt;140530861762960 -->
<g id="edge18" class="edge">
<title>140530862186640&#45;&gt;140530861762960</title>
<path fill="none" stroke="#000000" d="M151.5169,-2190.4551C150.8534,-2182.3828 150.0556,-2172.6764 149.3163,-2163.6817"/>
<polygon fill="#000000" stroke="#000000" points="152.7944,-2163.27 148.4869,-2153.5904 145.8179,-2163.8435 152.7944,-2163.27"/>
</g>
<!-- 140530861485328 -->
<g id="node20" class="node">
<title>140530861485328</title>
<polygon fill="none" stroke="#000000" points="78,-2044.5 78,-2080.5 208,-2080.5 208,-2044.5 78,-2044.5"/>
<text text-anchor="middle" x="143" y="-2058.8" font-family="Times,serif" font-size="14.00" fill="#000000">conv2d_10: Conv2D</text>
</g>
<!-- 140530861762960&#45;&gt;140530861485328 -->
<g id="edge19" class="edge">
<title>140530861762960&#45;&gt;140530861485328</title>
<path fill="none" stroke="#000000" d="M146.0112,-2117.4551C145.5689,-2109.3828 145.0371,-2099.6764 144.5442,-2090.6817"/>
<polygon fill="#000000" stroke="#000000" points="148.0332,-2090.3839 143.9913,-2080.5904 141.0437,-2090.7669 148.0332,-2090.3839"/>
</g>
<!-- 140530861517968 -->
<g id="node21" class="node">
<title>140530861517968</title>
<polygon fill="none" stroke="#000000" points="0,-1971.5 0,-2007.5 260,-2007.5 260,-1971.5 0,-1971.5"/>
<text text-anchor="middle" x="130" y="-1985.8" font-family="Times,serif" font-size="14.00" fill="#000000">batch_normalization_5: BatchNormalization</text>
</g>
<!-- 140530861485328&#45;&gt;140530861517968 -->
<g id="edge20" class="edge">
<title>140530861485328&#45;&gt;140530861517968</title>
<path fill="none" stroke="#000000" d="M139.7865,-2044.4551C138.349,-2036.3828 136.6205,-2026.6764 135.0187,-2017.6817"/>
<polygon fill="#000000" stroke="#000000" points="138.4207,-2016.8218 133.2216,-2007.5904 131.5291,-2018.0491 138.4207,-2016.8218"/>
</g>
<!-- 140530861517008 -->
<g id="node22" class="node">
<title>140530861517008</title>
<polygon fill="none" stroke="#000000" points="72.5,-1898.5 72.5,-1934.5 197.5,-1934.5 197.5,-1898.5 72.5,-1898.5"/>
<text text-anchor="middle" x="135" y="-1912.8" font-family="Times,serif" font-size="14.00" fill="#000000">dropout_2: Dropout</text>
</g>
<!-- 140530861517968&#45;&gt;140530861517008 -->
<g id="edge21" class="edge">
<title>140530861517968&#45;&gt;140530861517008</title>
<path fill="none" stroke="#000000" d="M131.236,-1971.4551C131.7888,-1963.3828 132.4537,-1953.6764 133.0697,-1944.6817"/>
<polygon fill="#000000" stroke="#000000" points="136.5693,-1944.8062 133.7609,-1934.5904 129.5857,-1944.3278 136.5693,-1944.8062"/>
</g>
<!-- 140530861677520 -->
<g id="node23" class="node">
<title>140530861677520</title>
<polygon fill="none" stroke="#000000" points="40.5,-1825.5 40.5,-1861.5 247.5,-1861.5 247.5,-1825.5 40.5,-1825.5"/>
<text text-anchor="middle" x="144" y="-1839.8" font-family="Times,serif" font-size="14.00" fill="#000000">up_sampling2d_1: UpSampling2D</text>
</g>
<!-- 140530861517008&#45;&gt;140530861677520 -->
<g id="edge22" class="edge">
<title>140530861517008&#45;&gt;140530861677520</title>
<path fill="none" stroke="#000000" d="M137.2247,-1898.4551C138.2199,-1890.3828 139.4166,-1880.6764 140.5255,-1871.6817"/>
<polygon fill="#000000" stroke="#000000" points="144.0197,-1871.9435 141.7697,-1861.5904 137.0723,-1871.0869 144.0197,-1871.9435"/>
</g>
<!-- 140530861567312 -->
<g id="node24" class="node">
<title>140530861567312</title>
<polygon fill="none" stroke="#000000" points="98,-1752.5 98,-1788.5 228,-1788.5 228,-1752.5 98,-1752.5"/>
<text text-anchor="middle" x="163" y="-1766.8" font-family="Times,serif" font-size="14.00" fill="#000000">conv2d_11: Conv2D</text>
</g>
<!-- 140530861677520&#45;&gt;140530861567312 -->
<g id="edge23" class="edge">
<title>140530861677520&#45;&gt;140530861567312</title>
<path fill="none" stroke="#000000" d="M148.6966,-1825.4551C150.8205,-1817.2951 153.3789,-1807.4652 155.7413,-1798.3887"/>
<polygon fill="#000000" stroke="#000000" points="159.1598,-1799.1496 158.2916,-1788.5904 152.3855,-1797.3863 159.1598,-1799.1496"/>
</g>
<!-- 140530861567312&#45;&gt;140530861532176 -->
<g id="edge25" class="edge">
<title>140530861567312&#45;&gt;140530861532176</title>
<path fill="none" stroke="#000000" d="M179.0674,-1752.4551C186.9581,-1743.5932 196.6026,-1732.7616 205.237,-1723.0646"/>
<polygon fill="#000000" stroke="#000000" points="207.8561,-1725.3863 211.8921,-1715.5904 202.6282,-1720.7313 207.8561,-1725.3863"/>
</g>
<!-- 140530861385296 -->
<g id="node26" class="node">
<title>140530861385296</title>
<polygon fill="none" stroke="#000000" points="163,-1606.5 163,-1642.5 293,-1642.5 293,-1606.5 163,-1606.5"/>
<text text-anchor="middle" x="228" y="-1620.8" font-family="Times,serif" font-size="14.00" fill="#000000">conv2d_12: Conv2D</text>
</g>
<!-- 140530861532176&#45;&gt;140530861385296 -->
<g id="edge26" class="edge">
<title>140530861532176&#45;&gt;140530861385296</title>
<path fill="none" stroke="#000000" d="M228,-1679.4551C228,-1671.3828 228,-1661.6764 228,-1652.6817"/>
<polygon fill="#000000" stroke="#000000" points="231.5001,-1652.5903 228,-1642.5904 224.5001,-1652.5904 231.5001,-1652.5903"/>
</g>
<!-- 140530860968400 -->
<g id="node27" class="node">
<title>140530860968400</title>
<polygon fill="none" stroke="#000000" points="163,-1533.5 163,-1569.5 293,-1569.5 293,-1533.5 163,-1533.5"/>
<text text-anchor="middle" x="228" y="-1547.8" font-family="Times,serif" font-size="14.00" fill="#000000">conv2d_13: Conv2D</text>
</g>
<!-- 140530861385296&#45;&gt;140530860968400 -->
<g id="edge27" class="edge">
<title>140530861385296&#45;&gt;140530860968400</title>
<path fill="none" stroke="#000000" d="M228,-1606.4551C228,-1598.3828 228,-1588.6764 228,-1579.6817"/>
<polygon fill="#000000" stroke="#000000" points="231.5001,-1579.5903 228,-1569.5904 224.5001,-1579.5904 231.5001,-1579.5903"/>
</g>
<!-- 140530860993808 -->
<g id="node28" class="node">
<title>140530860993808</title>
<polygon fill="none" stroke="#000000" points="98,-1460.5 98,-1496.5 358,-1496.5 358,-1460.5 98,-1460.5"/>
<text text-anchor="middle" x="228" y="-1474.8" font-family="Times,serif" font-size="14.00" fill="#000000">batch_normalization_6: BatchNormalization</text>
</g>
<!-- 140530860968400&#45;&gt;140530860993808 -->
<g id="edge28" class="edge">
<title>140530860968400&#45;&gt;140530860993808</title>
<path fill="none" stroke="#000000" d="M228,-1533.4551C228,-1525.3828 228,-1515.6764 228,-1506.6817"/>
<polygon fill="#000000" stroke="#000000" points="231.5001,-1506.5903 228,-1496.5904 224.5001,-1506.5904 231.5001,-1506.5903"/>
</g>
<!-- 140530861160528 -->
<g id="node29" class="node">
<title>140530861160528</title>
<polygon fill="none" stroke="#000000" points="137.5,-1387.5 137.5,-1423.5 344.5,-1423.5 344.5,-1387.5 137.5,-1387.5"/>
<text text-anchor="middle" x="241" y="-1401.8" font-family="Times,serif" font-size="14.00" fill="#000000">up_sampling2d_2: UpSampling2D</text>
</g>
<!-- 140530860993808&#45;&gt;140530861160528 -->
<g id="edge29" class="edge">
<title>140530860993808&#45;&gt;140530861160528</title>
<path fill="none" stroke="#000000" d="M231.2135,-1460.4551C232.651,-1452.3828 234.3795,-1442.6764 235.9813,-1433.6817"/>
<polygon fill="#000000" stroke="#000000" points="239.4709,-1434.0491 237.7784,-1423.5904 232.5793,-1432.8218 239.4709,-1434.0491"/>
</g>
<!-- 140530860992464 -->
<g id="node30" class="node">
<title>140530860992464</title>
<polygon fill="none" stroke="#000000" points="202,-1314.5 202,-1350.5 332,-1350.5 332,-1314.5 202,-1314.5"/>
<text text-anchor="middle" x="267" y="-1328.8" font-family="Times,serif" font-size="14.00" fill="#000000">conv2d_14: Conv2D</text>
</g>
<!-- 140530861160528&#45;&gt;140530860992464 -->
<g id="edge30" class="edge">
<title>140530861160528&#45;&gt;140530860992464</title>
<path fill="none" stroke="#000000" d="M247.427,-1387.4551C250.3645,-1379.2074 253.9097,-1369.2536 257.1712,-1360.0962"/>
<polygon fill="#000000" stroke="#000000" points="260.4987,-1361.185 260.5569,-1350.5904 253.9045,-1358.8364 260.4987,-1361.185"/>
</g>
<!-- 140530860992464&#45;&gt;140530860653136 -->
<g id="edge32" class="edge">
<title>140530860992464&#45;&gt;140530860653136</title>
<path fill="none" stroke="#000000" d="M269.9663,-1314.4551C271.2932,-1306.3828 272.8888,-1296.6764 274.3674,-1287.6817"/>
<polygon fill="#000000" stroke="#000000" points="277.8577,-1288.0257 276.0262,-1277.5904 270.9504,-1286.8902 277.8577,-1288.0257"/>
</g>
<!-- 140530860651984 -->
<g id="node32" class="node">
<title>140530860651984</title>
<polygon fill="none" stroke="#000000" points="214,-1168.5 214,-1204.5 344,-1204.5 344,-1168.5 214,-1168.5"/>
<text text-anchor="middle" x="279" y="-1182.8" font-family="Times,serif" font-size="14.00" fill="#000000">conv2d_15: Conv2D</text>
</g>
<!-- 140530860653136&#45;&gt;140530860651984 -->
<g id="edge33" class="edge">
<title>140530860653136&#45;&gt;140530860651984</title>
<path fill="none" stroke="#000000" d="M279,-1241.4551C279,-1233.3828 279,-1223.6764 279,-1214.6817"/>
<polygon fill="#000000" stroke="#000000" points="282.5001,-1214.5903 279,-1204.5904 275.5001,-1214.5904 282.5001,-1214.5903"/>
</g>
<!-- 140530860869008 -->
<g id="node33" class="node">
<title>140530860869008</title>
<polygon fill="none" stroke="#000000" points="214,-1095.5 214,-1131.5 344,-1131.5 344,-1095.5 214,-1095.5"/>
<text text-anchor="middle" x="279" y="-1109.8" font-family="Times,serif" font-size="14.00" fill="#000000">conv2d_16: Conv2D</text>
</g>
<!-- 140530860651984&#45;&gt;140530860869008 -->
<g id="edge34" class="edge">
<title>140530860651984&#45;&gt;140530860869008</title>
<path fill="none" stroke="#000000" d="M279,-1168.4551C279,-1160.3828 279,-1150.6764 279,-1141.6817"/>
<polygon fill="#000000" stroke="#000000" points="282.5001,-1141.5903 279,-1131.5904 275.5001,-1141.5904 282.5001,-1141.5903"/>
</g>
<!-- 140530860895120 -->
<g id="node34" class="node">
<title>140530860895120</title>
<polygon fill="none" stroke="#000000" points="149,-1022.5 149,-1058.5 409,-1058.5 409,-1022.5 149,-1022.5"/>
<text text-anchor="middle" x="279" y="-1036.8" font-family="Times,serif" font-size="14.00" fill="#000000">batch_normalization_7: BatchNormalization</text>
</g>
<!-- 140530860869008&#45;&gt;140530860895120 -->
<g id="edge35" class="edge">
<title>140530860869008&#45;&gt;140530860895120</title>
<path fill="none" stroke="#000000" d="M279,-1095.4551C279,-1087.3828 279,-1077.6764 279,-1068.6817"/>
<polygon fill="#000000" stroke="#000000" points="282.5001,-1068.5903 279,-1058.5904 275.5001,-1068.5904 282.5001,-1068.5903"/>
</g>
<!-- 140530860530000 -->
<g id="node35" class="node">
<title>140530860530000</title>
<polygon fill="none" stroke="#000000" points="188.5,-949.5 188.5,-985.5 395.5,-985.5 395.5,-949.5 188.5,-949.5"/>
<text text-anchor="middle" x="292" y="-963.8" font-family="Times,serif" font-size="14.00" fill="#000000">up_sampling2d_3: UpSampling2D</text>
</g>
<!-- 140530860895120&#45;&gt;140530860530000 -->
<g id="edge36" class="edge">
<title>140530860895120&#45;&gt;140530860530000</title>
<path fill="none" stroke="#000000" d="M282.2135,-1022.4551C283.651,-1014.3828 285.3795,-1004.6764 286.9813,-995.6817"/>
<polygon fill="#000000" stroke="#000000" points="290.4709,-996.0491 288.7784,-985.5904 283.5793,-994.8218 290.4709,-996.0491"/>
</g>
<!-- 140530860895312 -->
<g id="node36" class="node">
<title>140530860895312</title>
<polygon fill="none" stroke="#000000" points="253,-876.5 253,-912.5 383,-912.5 383,-876.5 253,-876.5"/>
<text text-anchor="middle" x="318" y="-890.8" font-family="Times,serif" font-size="14.00" fill="#000000">conv2d_17: Conv2D</text>
</g>
<!-- 140530860530000&#45;&gt;140530860895312 -->
<g id="edge37" class="edge">
<title>140530860530000&#45;&gt;140530860895312</title>
<path fill="none" stroke="#000000" d="M298.427,-949.4551C301.3645,-941.2074 304.9097,-931.2536 308.1712,-922.0962"/>
<polygon fill="#000000" stroke="#000000" points="311.4987,-923.185 311.5569,-912.5904 304.9045,-920.8364 311.4987,-923.185"/>
</g>
<!-- 140530860895312&#45;&gt;140530860567376 -->
<g id="edge39" class="edge">
<title>140530860895312&#45;&gt;140530860567376</title>
<path fill="none" stroke="#000000" d="M320.9663,-876.4551C322.2932,-868.3828 323.8888,-858.6764 325.3674,-849.6817"/>
<polygon fill="#000000" stroke="#000000" points="328.8577,-850.0257 327.0262,-839.5904 321.9504,-848.8902 328.8577,-850.0257"/>
</g>
<!-- 140530860568400 -->
<g id="node38" class="node">
<title>140530860568400</title>
<polygon fill="none" stroke="#000000" points="265,-730.5 265,-766.5 395,-766.5 395,-730.5 265,-730.5"/>
<text text-anchor="middle" x="330" y="-744.8" font-family="Times,serif" font-size="14.00" fill="#000000">conv2d_18: Conv2D</text>
</g>
<!-- 140530860567376&#45;&gt;140530860568400 -->
<g id="edge40" class="edge">
<title>140530860567376&#45;&gt;140530860568400</title>
<path fill="none" stroke="#000000" d="M330,-803.4551C330,-795.3828 330,-785.6764 330,-776.6817"/>
<polygon fill="#000000" stroke="#000000" points="333.5001,-776.5903 330,-766.5904 326.5001,-776.5904 333.5001,-776.5903"/>
</g>
<!-- 140530465744592 -->
<g id="node39" class="node">
<title>140530465744592</title>
<polygon fill="none" stroke="#000000" points="265,-657.5 265,-693.5 395,-693.5 395,-657.5 265,-657.5"/>
<text text-anchor="middle" x="330" y="-671.8" font-family="Times,serif" font-size="14.00" fill="#000000">conv2d_19: Conv2D</text>
</g>
<!-- 140530860568400&#45;&gt;140530465744592 -->
<g id="edge41" class="edge">
<title>140530860568400&#45;&gt;140530465744592</title>
<path fill="none" stroke="#000000" d="M330,-730.4551C330,-722.3828 330,-712.6764 330,-703.6817"/>
<polygon fill="#000000" stroke="#000000" points="333.5001,-703.5903 330,-693.5904 326.5001,-703.5904 333.5001,-703.5903"/>
</g>
<!-- 140530465783696 -->
<g id="node40" class="node">
<title>140530465783696</title>
<polygon fill="none" stroke="#000000" points="200,-584.5 200,-620.5 460,-620.5 460,-584.5 200,-584.5"/>
<text text-anchor="middle" x="330" y="-598.8" font-family="Times,serif" font-size="14.00" fill="#000000">batch_normalization_8: BatchNormalization</text>
</g>
<!-- 140530465744592&#45;&gt;140530465783696 -->
<g id="edge42" class="edge">
<title>140530465744592&#45;&gt;140530465783696</title>
<path fill="none" stroke="#000000" d="M330,-657.4551C330,-649.3828 330,-639.6764 330,-630.6817"/>
<polygon fill="#000000" stroke="#000000" points="333.5001,-630.5903 330,-620.5904 326.5001,-630.5904 333.5001,-630.5903"/>
</g>
<!-- 140530465421968 -->
<g id="node41" class="node">
<title>140530465421968</title>
<polygon fill="none" stroke="#000000" points="239.5,-511.5 239.5,-547.5 446.5,-547.5 446.5,-511.5 239.5,-511.5"/>
<text text-anchor="middle" x="343" y="-525.8" font-family="Times,serif" font-size="14.00" fill="#000000">up_sampling2d_4: UpSampling2D</text>
</g>
<!-- 140530465783696&#45;&gt;140530465421968 -->
<g id="edge43" class="edge">
<title>140530465783696&#45;&gt;140530465421968</title>
<path fill="none" stroke="#000000" d="M333.2135,-584.4551C334.651,-576.3828 336.3795,-566.6764 337.9813,-557.6817"/>
<polygon fill="#000000" stroke="#000000" points="341.4709,-558.0491 339.7784,-547.5904 334.5793,-556.8218 341.4709,-558.0491"/>
</g>
<!-- 140530465783120 -->
<g id="node42" class="node">
<title>140530465783120</title>
<polygon fill="none" stroke="#000000" points="311,-438.5 311,-474.5 441,-474.5 441,-438.5 311,-438.5"/>
<text text-anchor="middle" x="376" y="-452.8" font-family="Times,serif" font-size="14.00" fill="#000000">conv2d_20: Conv2D</text>
</g>
<!-- 140530465421968&#45;&gt;140530465783120 -->
<g id="edge44" class="edge">
<title>140530465421968&#45;&gt;140530465783120</title>
<path fill="none" stroke="#000000" d="M351.1573,-511.4551C354.9254,-503.1196 359.4812,-493.0416 363.657,-483.8042"/>
<polygon fill="#000000" stroke="#000000" points="366.8922,-485.1443 367.8222,-474.5904 360.5136,-482.2608 366.8922,-485.1443"/>
</g>
<!-- 140530465783120&#45;&gt;140530465444304 -->
<g id="edge46" class="edge">
<title>140530465783120&#45;&gt;140530465444304</title>
<path fill="none" stroke="#000000" d="M387.3708,-438.4551C392.7338,-429.9441 399.2417,-419.6165 405.1615,-410.2219"/>
<polygon fill="#000000" stroke="#000000" points="408.2305,-411.9167 410.6006,-401.5904 402.3082,-408.1848 408.2305,-411.9167"/>
</g>
<!-- 140530465446224 -->
<g id="node44" class="node">
<title>140530465446224</title>
<polygon fill="none" stroke="#000000" points="357,-292.5 357,-328.5 487,-328.5 487,-292.5 357,-292.5"/>
<text text-anchor="middle" x="422" y="-306.8" font-family="Times,serif" font-size="14.00" fill="#000000">conv2d_21: Conv2D</text>
</g>
<!-- 140530465444304&#45;&gt;140530465446224 -->
<g id="edge47" class="edge">
<title>140530465444304&#45;&gt;140530465446224</title>
<path fill="none" stroke="#000000" d="M422,-365.4551C422,-357.3828 422,-347.6764 422,-338.6817"/>
<polygon fill="#000000" stroke="#000000" points="425.5001,-338.5903 422,-328.5904 418.5001,-338.5904 425.5001,-338.5903"/>
</g>
<!-- 140530465142608 -->
<g id="node45" class="node">
<title>140530465142608</title>
<polygon fill="none" stroke="#000000" points="357,-219.5 357,-255.5 487,-255.5 487,-219.5 357,-219.5"/>
<text text-anchor="middle" x="422" y="-233.8" font-family="Times,serif" font-size="14.00" fill="#000000">conv2d_22: Conv2D</text>
</g>
<!-- 140530465446224&#45;&gt;140530465142608 -->
<g id="edge48" class="edge">
<title>140530465446224&#45;&gt;140530465142608</title>
<path fill="none" stroke="#000000" d="M422,-292.4551C422,-284.3828 422,-274.6764 422,-265.6817"/>
<polygon fill="#000000" stroke="#000000" points="425.5001,-265.5903 422,-255.5904 418.5001,-265.5904 425.5001,-265.5903"/>
</g>
<!-- 140530465172688 -->
<g id="node46" class="node">
<title>140530465172688</title>
<polygon fill="none" stroke="#000000" points="357,-146.5 357,-182.5 487,-182.5 487,-146.5 357,-146.5"/>
<text text-anchor="middle" x="422" y="-160.8" font-family="Times,serif" font-size="14.00" fill="#000000">conv2d_23: Conv2D</text>
</g>
<!-- 140530465142608&#45;&gt;140530465172688 -->
<g id="edge49" class="edge">
<title>140530465142608&#45;&gt;140530465172688</title>
<path fill="none" stroke="#000000" d="M422,-219.4551C422,-211.3828 422,-201.6764 422,-192.6817"/>
<polygon fill="#000000" stroke="#000000" points="425.5001,-192.5903 422,-182.5904 418.5001,-192.5904 425.5001,-192.5903"/>
</g>
<!-- 140530465222544 -->
<g id="node47" class="node">
<title>140530465222544</title>
<polygon fill="none" stroke="#000000" points="292,-73.5 292,-109.5 552,-109.5 552,-73.5 292,-73.5"/>
<text text-anchor="middle" x="422" y="-87.8" font-family="Times,serif" font-size="14.00" fill="#000000">batch_normalization_9: BatchNormalization</text>
</g>
<!-- 140530465172688&#45;&gt;140530465222544 -->
<g id="edge50" class="edge">
<title>140530465172688&#45;&gt;140530465222544</title>
<path fill="none" stroke="#000000" d="M422,-146.4551C422,-138.3828 422,-128.6764 422,-119.6817"/>
<polygon fill="#000000" stroke="#000000" points="425.5001,-119.5903 422,-109.5904 418.5001,-119.5904 425.5001,-119.5903"/>
</g>
<!-- 140530465222096 -->
<g id="node48" class="node">
<title>140530465222096</title>
<polygon fill="none" stroke="#000000" points="357,-.5 357,-36.5 487,-36.5 487,-.5 357,-.5"/>
<text text-anchor="middle" x="422" y="-14.8" font-family="Times,serif" font-size="14.00" fill="#000000">conv2d_24: Conv2D</text>
</g>
<!-- 140530465222544&#45;&gt;140530465222096 -->
<g id="edge51" class="edge">
<title>140530465222544&#45;&gt;140530465222096</title>
<path fill="none" stroke="#000000" d="M422,-73.4551C422,-65.3828 422,-55.6764 422,-46.6817"/>
<polygon fill="#000000" stroke="#000000" points="425.5001,-46.5903 422,-36.5904 418.5001,-46.5904 425.5001,-46.5903"/>
</g>
</g>
</svg>
